name C:\Users\u0150099\Documents\master_thesis\3dpredictsim\Results\debug\Fal_s1_mtjc2_sc_cspx10_oy2_ATx70_Fpsl10_MTc2_MTPm_k1_d01_MTJm_nl_MG_exp5_table_d01_PF_Natali2010_x3_ls146_ig21.mot
datacolumns 128
datarows 4
range 0.00000000 0.03215742
endheader
time	pelvis_tilt	pelvis_list	pelvis_rotation	pelvis_tx	pelvis_ty	pelvis_tz	hip_flexion_l	hip_adduction_l	hip_rotation_l	hip_flexion_r	hip_adduction_r	hip_rotation_r	knee_angle_l	knee_angle_r	ankle_angle_l	ankle_angle_r	subtalar_angle_l	subtalar_angle_r	mtj_angle_l	mtj_angle_r	mtp_angle_l	mtp_angle_r	lumbar_extension	lumbar_bending	lumbar_rotation	arm_flex_l	arm_add_l	arm_rot_l	arm_flex_r	arm_add_r	arm_rot_r	elbow_flex_l	elbow_flex_r	pro_sup_l	pro_sup_r	glut_med1_l/activation	glut_med2_l/activation	glut_med3_l/activation	glut_min1_l/activation	glut_min2_l/activation	glut_min3_l/activation	semimem_l/activation	semiten_l/activation	bifemlh_l/activation	bifemsh_l/activation	sar_l/activation	add_long_l/activation	add_brev_l/activation	add_mag1_l/activation	add_mag2_l/activation	add_mag3_l/activation	tfl_l/activation	pect_l/activation	grac_l/activation	glut_max1_l/activation	glut_max2_l/activation	glut_max3_l/activation	iliacus_l/activation	psoas_l/activation	quad_fem_l/activation	gem_l/activation	peri_l/activation	rect_fem_l/activation	vas_med_l/activation	vas_int_l/activation	vas_lat_l/activation	med_gas_l/activation	lat_gas_l/activation	soleus_l/activation	tib_post_l/activation	flex_dig_l/activation	flex_hal_l/activation	tib_ant_l/activation	per_brev_l/activation	per_long_l/activation	per_tert_l/activation	ext_dig_l/activation	ext_hal_l/activation	ercspn_l/activation	intobl_l/activation	extobl_l/activation	glut_med1_r/activation	glut_med2_r/activation	glut_med3_r/activation	glut_min1_r/activation	glut_min2_r/activation	glut_min3_r/activation	semimem_r/activation	semiten_r/activation	bifemlh_r/activation	bifemsh_r/activation	sar_r/activation	add_long_r/activation	add_brev_r/activation	add_mag1_r/activation	add_mag2_r/activation	add_mag3_r/activation	tfl_r/activation	pect_r/activation	grac_r/activation	glut_max1_r/activation	glut_max2_r/activation	glut_max3_r/activation	iliacus_r/activation	psoas_r/activation	quad_fem_r/activation	gem_r/activation	peri_r/activation	rect_fem_r/activation	vas_med_r/activation	vas_int_r/activation	vas_lat_r/activation	med_gas_r/activation	lat_gas_r/activation	soleus_r/activation	tib_post_r/activation	flex_dig_r/activation	flex_hal_r/activation	tib_ant_r/activation	per_brev_r/activation	per_long_r/activation	per_tert_r/activation	ext_dig_r/activation	ext_hal_r/activation	ercspn_r/activation	intobl_r/activation	extobl_r/activation	
          0.00000000	         -2.92689780	         -1.35636364	          2.95405629	          0.00000000	          0.90865178	         -0.00311798	        -16.27593313	          1.99889481	          9.79944227	         29.02522593	          2.91682896	         -2.54496381	        -11.30573238	        -10.50431663	          6.20789160	          7.80113857	          0.95548943	          0.56873408	         -1.70043435	          2.66972526	         17.74608067	         -7.21054367	         -3.97535679	          0.51522514	         -1.78273458	          4.42255206	        -13.74513912	         19.38771566	         -5.32912914	        -13.48157338	          4.79765493	         34.34613836	         26.81748224	         86.51662706	         86.51662706	          0.38232635	          0.05893264	          0.05000001	          0.55191487	          0.17842539	          0.07602227	          0.05000059	          0.05000007	          0.05000005	          0.06756728	          0.09649378	          0.05000014	          0.05000007	          0.05000014	          0.05000044	          0.05000031	          0.48989127	          0.05000053	          0.05000013	          0.05000043	          0.05000026	          0.05000023	          0.38555533	          0.78897428	          0.05000002	          0.05000010	          0.05000002	          0.37445168	          0.11534463	          0.12495405	          0.10092452	          0.37906263	          0.44993506	          0.31205058	          0.42463671	          0.27159794	          0.46415341	          0.05000000	          0.06946105	          0.22295144	          0.05000003	          0.05000000	          0.09626931	          0.05000000	          0.05000000	          0.05000000	          0.06946087	          0.05000009	          0.05893261	          0.05000004	          0.05000006	          0.05000023	          0.27150942	          0.06946108	          0.30261459	          0.05727923	          0.05000041	          0.10616464	          0.15788514	          0.11101816	          0.15650673	          0.16007304	          0.05000296	          0.05000345	          0.10056060	          0.05893285	          0.07990186	          0.11888655	          0.05000004	          0.05000009	          0.16020436	          0.05000024	          0.05000011	          0.05000004	          0.05000071	          0.05000064	          0.05000049	          0.05860807	          0.05000005	          0.05000001	          0.05000006	          0.08428741	          0.05000041	          0.32127649	          0.05000025	          0.12306497	          0.37692827	          0.61704236	          0.34516373	          0.06009819	          0.07668082	          0.10835378	
          0.01071914	         -2.92962348	         -1.42440097	          3.23201435	          0.01680901	          0.90802113	         -0.00291912	        -16.50431488	          1.69025693	          9.68672348	         28.63421970	          3.24390501	         -2.49038939	        -12.52804262	        -10.65041069	          5.30619229	          7.46877690	          1.74728864	          0.56073523	         -2.81623708	          2.72960838	         20.60516374	         -7.19646868	         -3.80761340	          0.68048304	         -1.88812696	          4.07420504	        -13.69844604	         19.33789222	         -6.04809301	        -13.45591426	          4.34877498	         35.54955574	         26.35303966	         86.51662706	         86.51662706	          0.32437593	          0.05000003	          0.05000000	          0.46825931	          0.15138086	          0.06449934	          0.05000056	          0.05000006	          0.05000003	          0.05732590	          0.08186798	          0.10288798	          0.05112328	          0.05000020	          0.05000051	          0.05000034	          0.49207841	          0.05897045	          0.05000007	          0.05000018	          0.05000011	          0.05000012	          0.32711541	          0.73272721	          0.05000000	          0.05000004	          0.05000002	          0.35684292	          0.14178947	          0.14541606	          0.12357054	          0.32160682	          0.38173689	          0.26475201	          0.37318480	          0.23043110	          0.39380058	          0.05000000	          0.05893261	          0.18915793	          0.05000001	          0.05000000	          0.08167745	          0.05000000	          0.05000005	          0.07113366	          0.05893261	          0.05893262	          0.05000006	          0.05893263	          0.05893262	          0.05893254	          0.24080230	          0.05893266	          0.26668276	          0.05893261	          0.05000011	          0.12620579	          0.19926063	          0.09419084	          0.13278489	          0.17403905	          0.05000003	          0.06436632	          0.08531846	          0.05000029	          0.06779094	          0.18778204	          0.05004194	          0.05000011	          0.33422300	          0.20117001	          0.11078298	          0.05000001	          0.05000003	          0.05000002	          0.05000002	          0.06029633	          0.05000711	          0.05000003	          0.05000042	          0.08187042	          0.08187038	          0.33102975	          0.05172926	          0.15601528	          0.38802845	          0.63592457	          0.37647717	          0.05098891	          0.06505805	          0.09193023	
          0.02143828	         -2.93017650	         -1.50475105	          3.49632071	          0.03389881	          0.90744682	         -0.00269429	        -16.65300127	          1.35572215	          9.52480142	         28.24693687	          3.52882455	         -2.41815649	        -13.83818300	        -11.45970730	          4.19965649	          6.70547692	          2.59298086	          0.57008301	         -4.02364597	          2.73667602	         23.66630797	         -7.14605228	         -3.62569248	          0.85761176	         -1.98636515	          3.64470240	        -13.65773783	         19.23733137	         -6.78137057	        -13.45113507	          4.09490954	         36.79456282	         25.88412237	         86.51662706	         86.51662706	          0.27520918	          0.05893253	          0.05893260	          0.39728368	          0.12843556	          0.05653748	          0.05000131	          0.05000023	          0.05000078	          0.05000002	          0.06945907	          0.19698916	          0.13025809	          0.05893267	          0.05893215	          0.05893317	          0.41749261	          0.05003228	          0.05001112	          0.05892251	          0.05893219	          0.05893246	          0.27753342	          0.67189030	          0.05893260	          0.05893259	          0.05000030	          0.30500709	          0.15857320	          0.16881793	          0.14458026	          0.27285978	          0.32387573	          0.22462265	          0.31661992	          0.19550389	          0.33411092	          0.05000000	          0.05000000	          0.16048663	          0.05000000	          0.05000000	          0.06929732	          0.06161126	          0.06926371	          0.06946105	          0.05000000	          0.05000002	          0.14482926	          0.05000002	          0.05000002	          0.05000003	          0.20430309	          0.05000004	          0.22626075	          0.05000001	          0.06946104	          0.10707647	          0.31980037	          0.33473985	          0.23197784	          0.20674362	          0.05000107	          0.06946153	          0.07238650	          0.10182243	          0.12866920	          0.19465926	          0.06946088	          0.06946105	          0.54645504	          0.17067801	          0.09399125	          0.06944308	          0.09260964	          0.09340947	          0.07001041	          0.06838239	          0.06946104	          0.06812061	          0.05000000	          0.06946106	          0.06946104	          0.40668561	          0.11207324	          0.13732753	          0.56938850	          0.68245833	          0.34159662	          0.05000000	          0.05519698	          0.07799606	
          0.03215742	         -2.92917547	         -1.62203007	          3.74620963	          0.05119373	          0.90695271	         -0.00247672	        -16.70341266	          0.98418722	          9.32302090	         27.80032147	          3.74020208	         -2.27386267	        -15.25103112	        -12.50818285	          2.84417768	          5.79396704	          3.43555428	          0.60588978	         -5.26790753	          2.83602566	         26.85065729	         -7.05376604	         -3.43228196	          1.07367418	         -2.07498667	          3.14807996	        -13.61722114	         19.11174025	         -7.50750748	        -13.47236850	          4.02234219	         38.07058162	         25.38656759	         86.51662706	         86.51662706	          0.25710059	          0.05000000	          0.05000000	          0.33709543	          0.10896817	          0.05000002	          0.05000055	          0.05000004	          0.05000001	          0.05000056	          0.05893265	          0.24778417	          0.11051467	          0.05000013	          0.05000021	          0.05000055	          0.49158098	          0.06945999	          0.05000006	          0.05000011	          0.05000006	          0.05000005	          0.23546675	          0.71191248	          0.05000000	          0.05000003	          0.05000000	          0.25877614	          0.13453774	          0.14322964	          0.12266575	          0.23150149	          0.27478479	          0.19057583	          0.26862876	          0.16587071	          0.28346861	          0.11792122	          0.09485771	          0.13616115	          0.05000003	          0.05000004	          0.05879370	          0.09224395	          0.05876517	          0.05893261	          0.34988937	          0.35384264	          0.41215447	          0.44586981	          0.31700144	          0.26889879	          0.18085488	          0.15120173	          0.20192219	          0.09649646	          0.05893271	          0.09084656	          0.27132720	          0.28400222	          0.19681625	          0.25575534	          0.05000008	          0.05893425	          0.21361640	          0.24803513	          0.21983551	          0.25764628	          0.05893262	          0.05893262	          0.46362700	          0.14480780	          0.13669949	          0.05891736	          0.07857248	          0.07925108	          0.05939870	          0.05801744	          0.05893260	          0.05779534	          0.06946109	          0.05893262	          0.05893260	          0.45905710	          0.09508592	          0.11651239	          0.48308435	          0.81480233	          0.61600388	          0.07849550	          0.09649675	          0.06617393	
